<svg id="Layer_1" data-name="Layer 1" xmlns="http://www.w3.org/2000/svg" xmlns:xlink="http://www.w3.org/1999/xlink" viewBox="0 0 640 401"><defs><style>.cls-1{font-size:151.71px;fill:#3a3a3a;font-family:Roboto-Regular, Roboto;}.cls-2{fill:url(#linear-gradient);}.cls-3{fill:url(#linear-gradient-2);}.cls-4{fill:url(#linear-gradient-3);}.cls-5{fill:url(#linear-gradient-4);}.cls-6{fill:url(#linear-gradient-5);}</style><linearGradient id="linear-gradient" x1="12.96" y1="234.74" x2="626.89" y2="234.74" gradientUnits="userSpaceOnUse"><stop offset="0"/><stop offset="1" stop-color="#6d6e71"/></linearGradient><linearGradient id="linear-gradient-2" x1="82.53" y1="14" x2="82.53" y2="193.91" gradientUnits="userSpaceOnUse"><stop offset="0" stop-color="#d12026"/><stop offset="1" stop-color="#89181a"/></linearGradient><linearGradient id="linear-gradient-3" x1="245.3" y1="16.4" x2="245.3" y2="191.51" xlink:href="#linear-gradient-2"/><linearGradient id="linear-gradient-4" x1="395.63" y1="16.4" x2="395.63" y2="193.91" xlink:href="#linear-gradient-2"/><linearGradient id="linear-gradient-5" x1="553.78" y1="16.4" x2="553.78" y2="191.51" xlink:href="#linear-gradient-2"/></defs><title>Artboard 1</title><text class="cls-1" transform="translate(12.96 385.89)">STUDIOS</text><rect class="cls-2" x="12.96" y="232.91" width="613.94" height="3.67"/><path class="cls-3" d="M152.1,134.5q-2.65,28-20.69,43.71t-48,15.7q-20.92,0-36.86-9.92T22,155.79q-8.66-18.28-9-42.45V97q0-24.77,8.78-43.66t25.19-29.1Q63.35,14,84.88,14q29,0,46.66,15.69T152.1,74.13H121.79q-2.17-18.88-11-27.24T84.88,38.53Q65,38.53,54.39,53T43.5,95.59v15.53q0,28.41,10.16,43.33t29.76,14.93q17.92,0,26.94-8.06t11.42-26.82Z"/><path class="cls-4" d="M243.62,124.16H209.71v67.35H179.28V16.4h61.57q30.31,0,46.78,13.6t16.48,39.36q0,17.57-8.48,29.43T272,117l39.33,72.92v1.56H278.74ZM209.71,99.63H241q15.39,0,24.05-7.76t8.66-21.23q0-14.07-8-21.77t-23.87-7.94H209.71Z"/><path class="cls-5" d="M461.05,16.4v117q0,27.9-17.86,44.2t-47.56,16.3q-30.07,0-47.74-16.06T330.21,133.3V16.4h30.31v117q0,17.53,8.9,26.78t26.22,9.25q35.11,0,35.12-37V16.4Z"/><path class="cls-6" d="M553.78,79.66l36.8-63.26h35.12l-52.92,86.83,54.12,88.27H591.42l-37.64-64.22L516,191.51H480.66l54.24-88.27-53-86.83H517Z"/></svg>