<svg id="Layer_1" data-name="Layer 1" xmlns="http://www.w3.org/2000/svg" viewBox="0 0 640 401"><defs><style>.cls-1{fill:#fff;}</style></defs><title>Artboard 1</title><path class="cls-1" d="M54.71,337q-18.47-5.31-26.88-13a24.92,24.92,0,0,1-8.41-19.1q0-12.86,10.28-21.27t26.73-8.41a44.61,44.61,0,0,1,20,4.34,32.89,32.89,0,0,1,13.61,12,30.59,30.59,0,0,1,4.82,16.67H80.42q0-9.9-6.28-15.57T56.43,286.9q-10.62,0-16.56,4.68t-5.94,13a14,14,0,0,0,5.64,11.27q5.64,4.61,19.21,8.43T80,332.69a32.24,32.24,0,0,1,11.36,10.73,27.38,27.38,0,0,1,3.7,14.43A25.43,25.43,0,0,1,84.76,379q-10.32,8-27.59,8a51.17,51.17,0,0,1-20.93-4.3,35.22,35.22,0,0,1-15-11.77A28.73,28.73,0,0,1,16,354H30.41q0,9.87,7.29,15.59t19.47,5.72q11.36,0,17.42-4.63A15.05,15.05,0,0,0,80.65,358q0-8-5.61-12.37T54.71,337Z"/><path class="cls-1" d="M188.67,288.4h-35v97.11H139.41V288.4H104.5V276.66h84.18Z"/><path class="cls-1" d="M281.45,276.66v74q-.08,15.4-9.68,25.19t-26.05,11l-3.81.15q-17.87,0-28.48-9.64t-10.77-26.54V276.66h14.2v73.71q0,11.81,6.5,18.35t18.54,6.54q12.18,0,18.65-6.5T267,350.45V276.66Z"/><path class="cls-1" d="M304.1,385.51V276.66h30.73a49.46,49.46,0,0,1,25.12,6.28,42.48,42.48,0,0,1,16.86,17.87q5.94,11.59,6,26.61v7q0,15.4-5.94,27a41.81,41.81,0,0,1-17,17.79q-11,6.21-25.68,6.35Zm14.35-97.11v85.37h15.1q16.6,0,25.83-10.32T368.62,334v-6.36q0-18.56-8.71-28.84T335.2,288.4Z"/><path class="cls-1" d="M419.9,385.51H405.55V276.66H419.9Z"/><path class="cls-1" d="M529.87,334.6q0,16-5.38,27.92a40.77,40.77,0,0,1-15.25,18.2q-9.87,6.28-23,6.28A40.61,40.61,0,0,1,448,362.67q-5.49-11.7-5.64-27.1v-7.85q0-15.7,5.46-27.74a40.36,40.36,0,0,1,38.28-24.82,42.2,42.2,0,0,1,23.06,6.32,40.7,40.7,0,0,1,15.36,18.32q5.38,12,5.38,27.92Zm-14.28-7q0-19.36-7.77-29.72T486.06,287.5q-13.61,0-21.42,10.35t-8,28.74v8q0,18.77,7.89,29.49t21.72,10.73q13.9,0,21.53-10.13t7.85-29Z"/><path class="cls-1" d="M583.47,337q-18.47-5.31-26.88-13a24.92,24.92,0,0,1-8.41-19.1q0-12.86,10.28-21.27t26.73-8.41a44.61,44.61,0,0,1,20,4.34,32.89,32.89,0,0,1,13.61,12,30.59,30.59,0,0,1,4.82,16.67H609.19q0-9.9-6.28-15.57t-17.72-5.66q-10.62,0-16.56,4.68t-5.94,13a14,14,0,0,0,5.64,11.27q5.64,4.61,19.21,8.43t21.23,8.42a32.24,32.24,0,0,1,11.36,10.73,27.38,27.38,0,0,1,3.7,14.43A25.43,25.43,0,0,1,613.53,379q-10.32,8-27.59,8a51.17,51.17,0,0,1-20.93-4.3,35.22,35.22,0,0,1-15-11.77,28.73,28.73,0,0,1-5.27-17h14.43q0,9.87,7.29,15.59t19.47,5.72q11.36,0,17.42-4.63A15.05,15.05,0,0,0,609.42,358q0-8-5.61-12.37T583.47,337Z"/><rect class="cls-1" x="10" y="231.12" width="619.6" height="3.7"/><path class="cls-1" d="M150.43,131.8q-2.67,28.28-20.88,44.12T81.12,191.76q-21.12,0-37.2-10T19.1,153.28q-8.74-18.45-9.1-42.84V93.94q0-25,8.86-44.06T44.29,20.5Q60.85,10.19,82.58,10.19q29.25,0,47.09,15.84t20.75,44.85H119.84q-2.19-19.05-11.11-27.49T82.58,34.95q-20,0-30.77,14.64t-11,42.94V108.2q0,28.67,10.26,43.73t30,15.06q18.08,0,27.19-8.13t11.53-27.07Z"/><path class="cls-1" d="M242.79,121.37H208.56v68H177.86V12.62H240q30.59,0,47.21,13.73t16.63,39.72q0,17.74-8.56,29.7t-23.85,18.4l39.69,73.59v1.58H278.23ZM208.56,96.61h31.56q15.53,0,24.27-7.83t8.74-21.42q0-14.2-8.07-22t-24.09-8H208.56Z"/><path class="cls-1" d="M462.23,12.62V130.71q0,28.16-18,44.6t-48,16.45q-30.35,0-48.19-16.2t-17.84-45v-118h30.59v118q0,17.69,9,27T396.2,167q35.44,0,35.44-37.32V12.62Z"/><path class="cls-1" d="M555.81,76.46l37.14-63.84h35.44L575,100.25l54.62,89.09H593.8l-38-64.81L517.7,189.33H482l54.74-89.09L483.23,12.62h35.44Z"/></svg>